<?xml version="1.0" encoding="UTF-8" standalone="no"?>
<!-- Created with Inkscape (http://www.inkscape.org/) -->

<svg
   width="52.387497mm"
   height="52.387501mm"
   viewBox="0 0 52.387497 52.387501"
   version="1.1"
   id="svg1"
   xml:space="preserve"
   inkscape:version="1.4.2 (ebf0e940d0, 2025-05-08)"
   sodipodi:docname="hkia_ael.svg"
   inkscape:export-filename="hkia_ael.png"
   inkscape:export-xdpi="496.48489"
   inkscape:export-ydpi="496.48489"
   xmlns:inkscape="http://www.inkscape.org/namespaces/inkscape"
   xmlns:sodipodi="http://sodipodi.sourceforge.net/DTD/sodipodi-0.dtd"
   xmlns="http://www.w3.org/2000/svg"
   xmlns:svg="http://www.w3.org/2000/svg"><sodipodi:namedview
     id="namedview1"
     pagecolor="#000000"
     bordercolor="#000000"
     borderopacity="0.25"
     inkscape:showpageshadow="2"
     inkscape:pageopacity="0.0"
     inkscape:pagecheckerboard="0"
     inkscape:deskcolor="#d1d1d1"
     inkscape:document-units="mm"
     inkscape:zoom="2.0167347"
     inkscape:cx="94.70755"
     inkscape:cy="79.832018"
     inkscape:window-width="1920"
     inkscape:window-height="1002"
     inkscape:window-x="0"
     inkscape:window-y="0"
     inkscape:window-maximized="1"
     inkscape:current-layer="svg1" /><defs
     id="defs1"><inkscape:path-effect
       effect="powerclip"
       message=""
       id="path-effect8"
       is_visible="true"
       lpeversion="1"
       inverse="true"
       flatten="false"
       hide_clip="false" /><inkscape:path-effect
       effect="fillet_chamfer"
       id="path-effect6"
       is_visible="true"
       lpeversion="1"
       nodesatellites_param="F,0,0,1,0,0.52916668,0,1 @ F,0,0,1,0,0.52916668,0,1 @ F,0,0,1,0,0.52916668,0,1 @ F,0,0,1,0,0.52916668,0,1 @ F,0,0,1,0,0.52916668,0,1 @ F,0,0,1,0,0.52916668,0,1"
       radius="2"
       unit="px"
       method="auto"
       mode="F"
       chamfer_steps="1"
       flexible="false"
       use_knot_distance="true"
       apply_no_radius="true"
       apply_with_radius="true"
       only_selected="false"
       hide_knots="false" /><inkscape:path-effect
       effect="fillet_chamfer"
       id="path-effect5"
       is_visible="true"
       lpeversion="1"
       nodesatellites_param="F,0,0,1,0,0.39687501,0,1 @ F,0,0,1,0,0.39687501,0,1 @ F,0,0,1,0,0.39687501,0,1 @ F,0,0,1,0,0.39687501,0,1 @ F,0,0,1,0,0.39687501,0,1 @ F,0,0,1,0,0.39687501,0,1 @ F,0,0,1,0,0.39687501,0,1 @ F,0,0,1,0,0.39687501,0,1 @ F,0,0,1,0,0.39687501,0,1 @ F,0,0,1,0,0.39687501,0,1 @ F,0,0,1,0,0.39687501,0,1 @ F,0,0,1,0,0.39687501,0,1 @ F,0,0,1,0,0.39687501,0,1 @ F,0,0,1,0,0.39687501,0,1 @ F,0,0,1,0,0.39687501,0,1 @ F,0,0,1,0,0.39687501,0,1"
       radius="1.5"
       unit="px"
       method="auto"
       mode="F"
       chamfer_steps="1"
       flexible="false"
       use_knot_distance="true"
       apply_no_radius="true"
       apply_with_radius="true"
       only_selected="false"
       hide_knots="false" /><inkscape:path-effect
       effect="fillet_chamfer"
       id="path-effect4"
       is_visible="true"
       lpeversion="1"
       nodesatellites_param="F,0,0,1,0,0.79375002,0,1 @ F,0,0,1,0,0.79375002,0,1 @ F,0,0,1,0,0.79375002,0,1 @ F,0,0,1,0,0.79375002,0,1 @ F,0,0,1,0,0.79375002,0,1 @ F,0,0,1,0,0.79375002,0,1 @ F,0,0,1,0,0.79375002,0,1 @ F,0,0,1,0,0.79375002,0,1 @ F,0,0,1,0,0.79375002,0,1 @ F,0,0,1,0,0.79375002,0,1 @ F,0,0,1,0,0.79375002,0,1 @ F,0,0,1,0,0.79375002,0,1 @ F,0,0,1,0,0.79375002,0,1 @ F,0,0,1,0,0.79375002,0,1 @ F,0,0,1,0,0.79375002,0,1 @ F,0,0,1,0,0.79375002,0,1"
       radius="3"
       unit="px"
       method="auto"
       mode="F"
       chamfer_steps="1"
       flexible="false"
       use_knot_distance="true"
       apply_no_radius="true"
       apply_with_radius="true"
       only_selected="false"
       hide_knots="false" /><inkscape:path-effect
       effect="fillet_chamfer"
       id="path-effect3"
       is_visible="true"
       lpeversion="1"
       nodesatellites_param="F,0,0,1,0,0,0,1 @ F,0,0,1,0,3.4395834,0,1 @ F,0,0,1,0,3.4395834,0,1 @ F,0,0,1,0,3.4395834,0,1"
       radius="13"
       unit="px"
       method="auto"
       mode="F"
       chamfer_steps="1"
       flexible="false"
       use_knot_distance="true"
       apply_no_radius="true"
       apply_with_radius="true"
       only_selected="false"
       hide_knots="false" /><inkscape:path-effect
       effect="fillet_chamfer"
       id="path-effect1"
       is_visible="true"
       lpeversion="1"
       nodesatellites_param="F,0,0,1,0,0.52916668,0,1 @ F,0,0,1,0,0.52916668,0,1 @ F,0,0,1,0,0.52916668,0,1 @ F,0,0,1,0,0.52916668,0,1 @ F,0,0,1,0,0.52916668,0,1 @ F,0,0,1,0,0.52916668,0,1"
       radius="2"
       unit="px"
       method="auto"
       mode="F"
       chamfer_steps="1"
       flexible="false"
       use_knot_distance="true"
       apply_no_radius="true"
       apply_with_radius="true"
       only_selected="false"
       hide_knots="false" /><inkscape:path-effect
       effect="fillet_chamfer"
       id="path-effect1-7"
       is_visible="true"
       lpeversion="1"
       nodesatellites_param="F,0,0,1,0,0.52916668,0,1 @ F,0,0,1,0,0.52916668,0,1 @ F,0,0,1,0,0.52916668,0,1 @ F,0,0,1,0,0.52916668,0,1 @ F,0,0,1,0,0.52916668,0,1 @ F,0,0,1,0,0.52916668,0,1"
       radius="2"
       unit="px"
       method="auto"
       mode="F"
       chamfer_steps="1"
       flexible="false"
       use_knot_distance="true"
       apply_no_radius="true"
       apply_with_radius="true"
       only_selected="false"
       hide_knots="false" /><inkscape:path-effect
       effect="fillet_chamfer"
       id="path-effect6-0"
       is_visible="true"
       lpeversion="1"
       nodesatellites_param="F,0,0,1,0,0.52916668,0,1 @ F,0,0,1,0,0.52916668,0,1 @ F,0,0,1,0,0.52916668,0,1 @ F,0,0,1,0,0.52916668,0,1 @ F,0,0,1,0,0.52916668,0,1 @ F,0,0,1,0,0.52916668,0,1"
       radius="2"
       unit="px"
       method="auto"
       mode="F"
       chamfer_steps="1"
       flexible="false"
       use_knot_distance="true"
       apply_no_radius="true"
       apply_with_radius="true"
       only_selected="false"
       hide_knots="false" /><inkscape:path-effect
       effect="fillet_chamfer"
       id="path-effect6-6"
       is_visible="true"
       lpeversion="1"
       nodesatellites_param="F,0,0,1,0,0.52916668,0,1 @ F,0,0,1,0,0.52916668,0,1 @ F,0,0,1,0,0.52916668,0,1 @ F,0,0,1,0,0.52916668,0,1 @ F,0,0,1,0,0.52916668,0,1 @ F,0,0,1,0,0.52916668,0,1 @ F,0,0,1,0,0.52916668,0,1 @ F,0,0,1,0,0.52916668,0,1"
       radius="2"
       unit="px"
       method="auto"
       mode="F"
       chamfer_steps="1"
       flexible="false"
       use_knot_distance="true"
       apply_no_radius="true"
       apply_with_radius="true"
       only_selected="false"
       hide_knots="false" /><filter
       id="mask-powermask-path-effect8_inverse"
       inkscape:label="filtermask-powermask-path-effect8"
       style="color-interpolation-filters:sRGB"
       height="100"
       width="100"
       x="-50"
       y="-50"><feColorMatrix
         id="mask-powermask-path-effect8_primitive1"
         values="1"
         type="saturate"
         result="fbSourceGraphic" /><feColorMatrix
         id="mask-powermask-path-effect8_primitive2"
         values="-1 0 0 0 1 0 -1 0 0 1 0 0 -1 0 1 0 0 0 1 0 "
         in="fbSourceGraphic" /></filter><clipPath
       clipPathUnits="userSpaceOnUse"
       id="clipPath8"><path
         id="path8"
         style="display:none;opacity:1;fill:#00107a;fill-opacity:1;stroke:none;stroke-width:0.79375;stroke-linecap:square;stroke-dasharray:none;stroke-opacity:1;paint-order:stroke fill markers"
         d="M 10.705127,8.4420834 7.7167084,23.450766 a 3.9861919,3.9861919 0 0 0 -0.076736,0.786108 l 0.00312,1.617252 a 1.2088855,1.2088855 0 0 0 0.2366148,0.716068 l 1.84814,2.501236 a 1.3960956,1.3960956 0 0 0 0.6043388,0.46659 l 1.9928,0.797121 a 2.0608057,2.0608057 0 0 0 0.765364,0.147396 h 25.230146 a 3.2727294,3.2727294 0 0 0 0.782246,-0.09486 l 2.186519,-0.53822 a 1.2212828,1.2212828 0 0 0 0.641361,-0.398143 l 2.445284,-2.897031 a 1.0854937,1.0854937 0 0 0 0.255987,-0.700156 v -1.61725 a 5.0929339,5.0929339 0 0 0 -0.06148,-0.788959 L 42.28207,8.8544 A 0.68163239,0.68163239 0 0 0 41.849257,8.322233 L 34.994035,5.7361307 A 0.3029984,0.3029984 0 0 0 34.585426,5.9911684 L 34.432494,7.6122321 A 0.70571979,0.70571979 0 0 1 34.038228,8.1807492 L 33.15984,8.6073943 A 1.7254753,1.7254753 0 0 1 32.405974,8.7807906 H 20.824724 A 2.6244389,2.6244389 0 0 1 20.04872,8.663441 L 18.896133,8.3066877 A 0.59074225,0.59074225 0 0 1 18.482324,7.7939815 L 18.324202,5.9914047 A 0.31507422,0.31507422 0 0 0 17.912333,5.7194913 l -6.752516,2.2099143 a 0.6789375,0.6789375 0 0 0 -0.45469,0.5126778 z m 5.650342,25.8938536 c -2.078369,0 -3.769532,1.691164 -3.769531,3.769532 v 3.06836 0.330078 h 0.662109 v -0.330078 -3.06836 c 0,-1.72089 1.386532,-3.107423 3.107422,-3.107423 h 19.261718 c 1.72089,0 3.109375,1.386533 3.109375,3.107423 v 3.06836 0.330078 h 0.660157 v -0.330078 -3.06836 c 0,-2.078368 -1.691164,-3.769532 -3.769532,-3.769532 z" /><path
         id="lpe_path-effect8"
         style="opacity:1;fill:#00107a;fill-opacity:1;stroke:none;stroke-width:0.79375;stroke-linecap:square;stroke-dasharray:none;stroke-opacity:1;paint-order:stroke fill markers"
         class="powerclip"
         d="M -0.63622143,-2.1357892 H 52.447869 V 46.401471 H -0.63622143 Z M 10.705127,8.4420834 7.7167084,23.450766 a 3.9861919,3.9861919 0 0 0 -0.076736,0.786108 l 0.00312,1.617252 a 1.2088855,1.2088855 0 0 0 0.2366148,0.716068 l 1.84814,2.501236 a 1.3960956,1.3960956 0 0 0 0.6043388,0.46659 l 1.9928,0.797121 a 2.0608057,2.0608057 0 0 0 0.765364,0.147396 h 25.230146 a 3.2727294,3.2727294 0 0 0 0.782246,-0.09486 l 2.186519,-0.53822 a 1.2212828,1.2212828 0 0 0 0.641361,-0.398143 l 2.445284,-2.897031 a 1.0854937,1.0854937 0 0 0 0.255987,-0.700156 v -1.61725 a 5.0929339,5.0929339 0 0 0 -0.06148,-0.788959 L 42.28207,8.8544 A 0.68163239,0.68163239 0 0 0 41.849257,8.322233 L 34.994035,5.7361307 A 0.3029984,0.3029984 0 0 0 34.585426,5.9911684 L 34.432494,7.6122321 A 0.70571979,0.70571979 0 0 1 34.038228,8.1807492 L 33.15984,8.6073943 A 1.7254753,1.7254753 0 0 1 32.405974,8.7807906 H 20.824724 A 2.6244389,2.6244389 0 0 1 20.04872,8.663441 L 18.896133,8.3066877 A 0.59074225,0.59074225 0 0 1 18.482324,7.7939815 L 18.324202,5.9914047 A 0.31507422,0.31507422 0 0 0 17.912333,5.7194913 l -6.752516,2.2099143 a 0.6789375,0.6789375 0 0 0 -0.45469,0.5126778 z m 5.650342,25.8938536 c -2.078369,0 -3.769532,1.691164 -3.769531,3.769532 v 3.06836 0.330078 h 0.662109 v -0.330078 -3.06836 c 0,-1.72089 1.386532,-3.107423 3.107422,-3.107423 h 19.261718 c 1.72089,0 3.109375,1.386533 3.109375,3.107423 v 3.06836 0.330078 h 0.660157 v -0.330078 -3.06836 c 0,-2.078368 -1.691164,-3.769532 -3.769532,-3.769532 z" /></clipPath></defs><g
     inkscape:groupmode="layer"
     id="layer3"
     inkscape:label="Layer 2"
     style="display:inline;opacity:1"><path
       style="fill:#ffffff;fill-opacity:1;stroke-width:0.2;stroke-linecap:square;paint-order:stroke fill markers"
       d="m 140.75268,186.48509 0.39083,0.54845 a 1.026878,1.026878 27.262775 0 0 0.83627,0.43094 l 5.65404,0 a 0.80590765,0.80590765 146.71071 0 0 0.73951,-0.48557 l 2.37817,-5.48999 a 1.084193,1.084193 87.405617 0 0 -0.043,-0.95012 l -0.0723,-0.13254 a 0.89139891,0.89139891 30.694903 0 0 -0.78256,-0.46455 l -2.44827,0 a 1.3247855,1.3247855 158.22647 0 0 -0.91271,0.36457 l -5.6635,5.3833 a 0.6095163,0.6095163 95.489242 0 0 -0.0764,0.79551 z"
       id="path1"
       transform="translate(-133.87917,-138.18407)"
       inkscape:path-effect="#path-effect1"
       inkscape:original-d="m 140.44558,186.05415 1.00503,1.41033 h 6.71238 l 2.79885,-6.46113 -0.57907,-1.06164 h -3.50661 z"
       sodipodi:nodetypes="ccccccc" /><path
       style="fill:#ffffff;fill-opacity:1;stroke-width:0.2;stroke-linecap:square;paint-order:stroke fill markers"
       d="m 140.75268,186.48509 0.39083,0.54845 a 1.026878,1.026878 27.262775 0 0 0.83627,0.43094 l 5.65404,0 a 0.80590765,0.80590765 146.71071 0 0 0.73951,-0.48557 l 2.37817,-5.48999 a 1.084193,1.084193 87.405617 0 0 -0.043,-0.95012 l -0.0723,-0.13254 a 0.89139891,0.89139891 30.694903 0 0 -0.78256,-0.46455 l -2.44827,0 a 1.3247855,1.3247855 158.22647 0 0 -0.91271,0.36457 l -5.6635,5.3833 a 0.6095163,0.6095163 95.489242 0 0 -0.0764,0.79551 z"
       id="path1-7"
       transform="matrix(-1,0,0,1,185.59558,-138.18407)"
       inkscape:path-effect="#path-effect1-7"
       inkscape:original-d="m 140.44558,186.05415 1.00503,1.41033 h 6.71238 l 2.79885,-6.46113 -0.57907,-1.06164 h -3.50661 z"
       sodipodi:nodetypes="ccccccc" /><path
       style="opacity:1;fill:#ffffff;fill-opacity:1;stroke-width:0.2;stroke-linecap:square;paint-order:stroke fill markers"
       d="m 8.7065059,40.809446 -1.96701,-2.198577 A 5.010795,5.010795 57.183147 0 1 5.8897371,37.293153 L 4.6199136,34.41619 A 3.0080525,3.0080525 80.966449 0 1 4.3789053,32.90027 L 5.3573556,23.180606 A 13.052664,13.052664 99.228382 0 1 5.6114738,21.616543 L 8.4471477,9.04219 A 2.8856603,2.8856603 118.08815 0 1 9.1678227,7.6918136 L 10.608345,6.172119 a 3.6115618,3.6115618 145.86338 0 1 1.283348,-0.870088 l 3.431221,-1.3683083 c 0.407193,-0.162381 1.088346,-0.3496236 1.522615,-0.4096942 1.461494,-0.2021623 4.790675,-0.603304 8.516256,-0.6552445 0.437953,-0.00611 1.148435,-0.00608 1.586766,-3.91e-5 3.817376,0.052578 7.453066,0.4655501 9.003784,0.6645089 0.434469,0.055743 1.115286,0.239968 1.521546,0.4046681 l 2.737211,1.1096802 a 5.8051648,5.8051648 29.853773 0 1 1.364144,0.7829537 l 0.89618,0.6911403 a 4.7346111,4.7346111 47.156684 0 1 1.064636,1.1479599 l 0.219729,0.3341713 a 3.9512442,3.9512442 68.032468 0 1 0.582222,1.4434047 l 2.453002,13.096385 a 11.942161,11.942161 83.193848 0 1 0.187721,1.572843 l 0.463724,8.838005 a 3.9453834,3.9453834 98.371663 0 1 -0.22659,1.539733 l -0.814812,2.269833 a 4.899186,4.899186 118.94974 0 1 -0.758526,1.371252 l -2.075531,2.64202 a 1.6329165,1.6329165 154.07673 0 1 -1.284096,0.624168 l -32.253391,-4.6e-4 A 1.7752394,1.7752394 24.091323 0 1 8.7065059,40.809446 Z"
       id="path2"
       sodipodi:nodetypes="cccccccsccccccccc"
       inkscape:path-effect="#path-effect4;#path-effect8"
       inkscape:original-d="M 9.2357537,41.401 6.2102481,38.019315 4.2994026,33.690028 5.4368583,22.390848 8.6217632,8.2678848 11.154405,5.5960478 16.060202,3.6397059 c 0,0 4.754279,-0.7765084 10.094625,-0.7765084 5.340344,0 10.583455,0.7765084 10.583455,0.7765084 l 4.208409,1.7061122 2.15327,1.6606157 1.091911,1.6606157 2.745264,14.6567505 0.546904,10.423325 -1.351172,3.763979 -3.056223,3.890378 z"
       clip-path="url(#clipPath8)" /><rect
       style="opacity:1;fill:#ffffff;fill-opacity:1;stroke:none;stroke-width:0.785762;stroke-linecap:square;stroke-dasharray:none;stroke-opacity:1;paint-order:stroke fill markers"
       id="rect5"
       width="7.1806974"
       height="3.3754609"
       x="11.838841"
       y="26.267422"
       rx="0.7275691"
       ry="0.7275691" /><rect
       style="display:inline;fill:#ffffff;fill-opacity:1;stroke:none;stroke-width:0.785762;stroke-linecap:square;stroke-dasharray:none;stroke-opacity:1;paint-order:stroke fill markers"
       id="rect5-1"
       width="7.1806974"
       height="3.3754609"
       x="33.198532"
       y="26.267422"
       rx="0.7275691"
       ry="0.7275691" /><path
       style="opacity:1;fill:#ffffff;fill-opacity:1;stroke:none;stroke-width:0.79375;stroke-linecap:square;stroke-dasharray:none;stroke-opacity:1;paint-order:stroke fill markers"
       d="M 11.354027,9.7565691 9.1337007,22.095241 a 1.2330049,1.2330049 76.973643 0 0 0.2192124,0.947525 l 0.435775,0.594238 a 1.0442601,1.0442601 26.873083 0 0 0.8420969,0.426723 h 8.560723 a 0.52853996,0.52853996 134.96605 0 0 0.52854,-0.529166 L 19.705217,11.019594 A 1.2796659,1.2796659 67.466058 0 0 19.330413,10.116251 L 18.824107,9.6099448 A 1.2775209,1.2775209 22.500007 0 0 17.920763,9.2357674 h -5.943851 a 0.63288883,0.63288883 140.10056 0 0 -0.622885,0.5208017 z"
       id="path6"
       inkscape:path-effect="#path-effect6"
       inkscape:original-d="M 11.447745,9.2357674 9.0399832,22.616043 10.101618,24.063727 h 9.619057 L 19.70459,10.490428 18.44993,9.2357674 Z"
       sodipodi:nodetypes="ccccccc"
       transform="translate(-0.06434152)" /><path
       style="display:inline;opacity:1;fill:#ffffff;fill-opacity:1;stroke:none;stroke-width:0.79375;stroke-linecap:square;stroke-dasharray:none;stroke-opacity:1;paint-order:stroke fill markers"
       d="m 9.6882258,9.611414 -0.4137935,0.441785 a 1.3392617,1.3392617 111.5663 0 0 -0.3618015,0.915379 l -0.00127,11.348496 a 1.4117702,1.4117702 69.459168 0 0 0.3477188,0.928 l 0.3660787,0.41982 a 1.1635196,1.1635196 24.455958 0 0 0.8769451,0.398833 l 8.737662,0 a 1.2734539,1.2734539 157.43533 0 0 0.902499,-0.375021 l 0.390296,-0.392063 a 1.2795378,1.2795378 112.40258 0 0 0.372727,-0.904187 L 20.892236,10.974097 A 1.2544442,1.2544442 67.062865 0 0 20.512209,10.076073 L 20.016393,9.5940601 A 1.303467,1.303467 22.095608 0 0 19.107804,9.2252017 H 10.579135 A 1.2206739,1.2206739 156.56309 0 0 9.6882258,9.611414 Z"
       id="path6-1"
       inkscape:path-effect="#path-effect6-6"
       inkscape:original-d="m 10.049968,9.2252017 -1.1372779,1.2142093 -0.00139,12.40683 1.0616349,1.217486 h 9.795996 l 1.13696,-1.142105 -0.01426,-12.476691 -1.25466,-1.2197293 z"
       sodipodi:nodetypes="ccccccccc"
       transform="translate(11.395342)" /><path
       style="display:inline;fill:#ffffff;fill-opacity:1;stroke:none;stroke-width:0.79375;stroke-linecap:square;stroke-dasharray:none;stroke-opacity:1;paint-order:stroke fill markers"
       d="M 11.127262,9.7130518 9.1862865,22.093262 a 1.2723631,1.2723631 76.328253 0 0 0.230968,0.949504 l 0.4357747,0.594238 a 1.0442598,1.0442598 26.873089 0 0 0.8420968,0.426723 h 8.496382 A 0.52854206,0.52854206 134.96616 0 0 19.72005,23.534561 L 19.705215,10.974097 A 1.2796582,1.2796582 67.466163 0 0 19.330413,10.070754 L 18.824107,9.5644484 A 1.2775214,1.2775214 22.499999 0 0 17.920763,9.1902711 h -6.182372 a 0.61859371,0.61859371 139.45516 0 0 -0.611129,0.5227807 z"
       id="path6-8"
       inkscape:path-effect="#path-effect6-0"
       inkscape:original-d="M 11.209224,9.1902711 9.1043247,22.616043 10.165959,24.063727 h 9.554716 L 19.70459,10.444931 18.44993,9.1902711 Z"
       sodipodi:nodetypes="ccccccc"
       transform="matrix(-1,0,0,1,52.699678,0)" /></g></svg>
