<?xml version="1.0" encoding="UTF-8" standalone="no"?>
<!-- Created with Inkscape (http://www.inkscape.org/) -->

<svg
   width="1716"
   height="1680"
   viewBox="0 0 454.02499 444.5"
   version="1.1"
   id="svg116493"
   xml:space="preserve"
   sodipodi:docname="train2.svg"
   inkscape:version="1.2.1 (9c6d41e410, 2022-07-14)"
   inkscape:export-filename="train2.png"
   inkscape:export-xdpi="167.83"
   inkscape:export-ydpi="167.83"
   xmlns:inkscape="http://www.inkscape.org/namespaces/inkscape"
   xmlns:sodipodi="http://sodipodi.sourceforge.net/DTD/sodipodi-0.dtd"
   xmlns="http://www.w3.org/2000/svg"
   xmlns:svg="http://www.w3.org/2000/svg"><sodipodi:namedview
     id="namedview116495"
     pagecolor="#ffffff"
     bordercolor="#cccccc"
     borderopacity="0"
     inkscape:showpageshadow="false"
     inkscape:pageopacity="0"
     inkscape:pagecheckerboard="true"
     inkscape:deskcolor="#d1d1d1"
     inkscape:document-units="px"
     showgrid="false"
     inkscape:zoom="0.35355339"
     inkscape:cx="1141.2703"
     inkscape:cy="787.71695"
     inkscape:window-width="1920"
     inkscape:window-height="1017"
     inkscape:window-x="-8"
     inkscape:window-y="-8"
     inkscape:window-maximized="1"
     inkscape:current-layer="layer3" /><defs
     id="defs116490"><inkscape:path-effect
       effect="fillet_chamfer"
       id="path-effect127377"
       is_visible="true"
       lpeversion="1"
       nodesatellites_param="F,0,0,1,0,3.96875,0,1 @ F,0,0,1,0,3.96875,0,1 @ F,0,0,1,0,3.96875,0,1 @ F,0,0,1,0,3.96875,0,1"
       unit="px"
       method="auto"
       mode="F"
       radius="15"
       chamfer_steps="1"
       flexible="false"
       use_knot_distance="true"
       apply_no_radius="true"
       apply_with_radius="true"
       only_selected="false"
       hide_knots="false" /><inkscape:path-effect
       effect="fillet_chamfer"
       id="path-effect127375"
       is_visible="true"
       lpeversion="1"
       nodesatellites_param="F,0,0,1,0,3.96875,0,1 @ F,0,0,1,0,3.96875,0,1 @ F,0,0,1,0,3.96875,0,1 @ F,0,0,1,0,3.96875,0,1"
       unit="px"
       method="auto"
       mode="F"
       radius="15"
       chamfer_steps="1"
       flexible="false"
       use_knot_distance="true"
       apply_no_radius="true"
       apply_with_radius="true"
       only_selected="false"
       hide_knots="false" /><inkscape:path-effect
       effect="fillet_chamfer"
       id="path-effect127313"
       is_visible="true"
       lpeversion="1"
       nodesatellites_param="F,0,0,1,0,7.9375,0,1 @ F,0,0,1,0,7.9375,0,1 @ F,0,0,1,0,7.9375,0,1 @ F,0,0,1,0,7.9375,0,1 @ F,0,0,1,0,7.9375,0,1"
       unit="px"
       method="auto"
       mode="F"
       radius="30"
       chamfer_steps="1"
       flexible="false"
       use_knot_distance="true"
       apply_no_radius="true"
       apply_with_radius="true"
       only_selected="false"
       hide_knots="false" /><inkscape:path-effect
       effect="fillet_chamfer"
       id="path-effect127297"
       is_visible="true"
       lpeversion="1"
       nodesatellites_param="F,0,0,1,0,7.9375,0,1 @ F,0,0,1,0,7.9375,0,1 @ F,0,0,1,0,7.9375,0,1 @ F,0,0,1,0,7.9375,0,1 @ F,0,0,1,0,7.9375,0,1"
       unit="px"
       method="auto"
       mode="F"
       radius="30"
       chamfer_steps="1"
       flexible="false"
       use_knot_distance="true"
       apply_no_radius="true"
       apply_with_radius="true"
       only_selected="false"
       hide_knots="false" /></defs><g
     inkscape:groupmode="layer"
     id="layer3"
     inkscape:label="bg"
     style="display:inline"><path
       style="fill:#192838;fill-opacity:1;stroke-width:0.264999"
       d="M 68.791666,270.93333 394.75833,267.75833 365.125,69.85 319.62608,53.63375 157.2852,50.263619 87.3125,78.845833 Z"
       id="path922"
       sodipodi:nodetypes="ccccccc" /></g><g
     inkscape:groupmode="layer"
     id="layer2"
     inkscape:label="Layer 2"
     transform="translate(-7.3551494)"><rect
       style="fill:#ac2044;fill-opacity:1;stroke:none;stroke-width:0.264583;stroke-opacity:1"
       id="rect127228"
       width="309.82709"
       height="57.679165"
       x="82.285416"
       y="261.40833"
       inkscape:label="red" /><path
       id="path119115"
       style="display:none;fill:#e37777;fill-opacity:0;stroke:#000000;stroke-width:0.264583;stroke-opacity:1"
       d="M 313.00208,59.795832 H 161.925 c 0,0 -11.80824,0.243263 -17.19792,1.058334 -4.45198,0.673264 -13.67551,2.790476 -22.97332,7.198373 -8.9816,4.257988 -16.98837,11.837487 -20.71688,24.983932 -0.73221,2.581719 -1.243632,4.584808 -1.646027,8.365589 0,0 -14.459603,77.72086 -16.047103,120.84794 -1.5875,43.12708 -1.56732,77.71689 18.59971,92.29281 5.19171,0.37418 8.76626,0.0468 8.76626,0.0468 h 259.35167 c 0,0 20.99278,-7.9375 21.25736,-53.18125 0.26458,-45.24375 -7.54062,-114.03542 -19.97604,-171.979163 0,0 -4.90924,-27.594163 -58.34063,-29.633335 z m -75.0253,-35.287217 c 0,0 -48.64305,0.561266 -76.89344,7.483547 C 132.83295,38.914443 89.241293,43.965836 80.261038,82.131926 71.280781,120.29801 56.091666,219.075 61.383333,284.1625 c 5.291666,65.0875 20.748593,81.97003 20.748593,81.97003 0,0 6.173925,9.7286 14.780003,9.35442 8.606081,-0.37417 279.884661,0 279.884661,0 0,0 9.5982,-0.33739 14.03164,-8.04481 12.98509,-22.57427 23.96806,-59.60415 22.63773,-113.74991 C 412.39998,210.30569 403.84295,121.01101 392.41467,78.934485 389.60095,68.574938 385.16059,62.179647 382.16459,58.875379 375.48262,51.505868 340.61868,25.98304 237.97678,24.508615 Z"
       inkscape:label="base" /><path
       style="fill:#ffffff;fill-opacity:1;stroke:#ffffff;stroke-width:1.41421;stroke-opacity:1"
       d="m 355.02466,1416.7093 c -12.94664,-2.6824 -29.33589,-15.1205 -42.42117,-32.1942 -40.86445,-53.32 -72.19089,-184.7378 -81.41212,-341.5326 -1.94496,-33.0715 -1.9475,-132.60507 -0.004,-173.24116 6.25066,-130.72181 21.72418,-271.97526 45.39132,-414.36457 7.74268,-46.58259 21.37214,-117.07741 27.47909,-142.12847 21.66275,-88.86188 85.84048,-138.61748 221.32298,-171.58691 107.22693,-26.09348 145.38972,-32.95227 221.32442,-39.77743 119.51001,-10.741803 224.68195,-9.660437 342.23962,3.51887 154.6646,17.33932 280.9035,56.97435 343.3407,107.79817 16.7146,13.6057 34.2742,40.75705 44.0518,68.11474 38.91,108.86998 89.2769,542.97332 85.1729,734.08956 -2.3086,107.5108 -16.1044,196.1607 -42.9158,275.7717 -14.4368,42.8669 -37.4733,92.1605 -49.499,105.9182 -6.2124,7.1071 -20.1247,15.3671 -31.5469,18.7301 -5.2332,1.5408 -101.5281,1.8782 -541.93453,1.8988 -294.56381,0.014 -537.82881,-0.4429 -540.58889,-1.0148 z M 1406.1735,1186.4309 c 22.1862,-12.723 45.5473,-46.4292 57.2743,-82.6372 13.7917,-42.5831 17.357,-76.7909 16.0664,-154.1493 -2.7478,-164.69893 -27.8522,-379.03447 -67.5103,-576.38706 -3.8399,-19.10878 -7.9205,-37.88246 -9.068,-41.7193 -5.7602,-19.25963 -28.0058,-46.14158 -50.8031,-61.39122 -23.9283,-16.0062 -56.8807,-29.12468 -90.4499,-36.00853 -43.8878,-8.99982 -19.9701,-8.39298 -353.05069,-8.95755 -324.18091,-0.54948 -342.78847,-0.24825 -374.05949,6.05557 -30.81736,6.21237 -67.12378,19.39931 -88.52267,32.15258 -21.96986,13.09355 -41.87681,34.33686 -53.14516,56.7128 -9.38137,18.62893 -13.27113,31.87433 -18.96052,64.5644 -32.5031,186.75603 -48.77312,302.18668 -57.10924,405.17218 -5.60814,69.28362 -6.41366,196.90078 -1.5309,242.53763 5.88204,54.9767 18.31444,95.9472 37.97883,125.1579 6.69591,9.9465 25.59368,29.3552 30.77796,30.1715 9.37896,1.4768 190.72651,2.9115 509.01484,2.9596 l 505.58134,0.076 z"
       id="path125160"
       transform="scale(0.26458333)"
       inkscape:label="fill"
       sodipodi:nodetypes="ssscssssssssssssssssssssssssssssssccs" /><path
       style="fill:#ffffff;fill-opacity:1;stroke:#ffffff;stroke-width:0.264583;stroke-opacity:1"
       d="m 314.58958,387.61458 21.69583,53.44583 h 55.19761 l -52.19774,-53.59979 z"
       id="path126016"
       inkscape:label="rail2" /><path
       style="fill:#ffffff;fill-opacity:1;stroke:#ffffff;stroke-width:0.264583;stroke-opacity:1"
       d="M 158.73405,387.30397 137.03822,440.7498 H 81.840614 l 52.197736,-53.59979 z"
       id="path126016-8"
       inkscape:label="rail1" /><rect
       style="fill:#ffffff;fill-opacity:1;stroke:none;stroke-width:0.264583;stroke-opacity:1"
       id="rect126405"
       width="64.602325"
       height="26.402178"
       x="111.63519"
       y="273.87509"
       ry="0"
       rx="0"
       inkscape:label="headlight1"
       inkscape:path-effect="#path-effect127377"
       d="m 115.60394,273.87509 h 56.66483 a 3.96875,3.96875 45 0 1 3.96875,3.96875 v 18.46468 a 3.96875,3.96875 135 0 1 -3.96875,3.96875 h -56.66483 a 3.96875,3.96875 45 0 1 -3.96875,-3.96875 v -18.46468 a 3.96875,3.96875 135 0 1 3.96875,-3.96875 z" /><rect
       style="fill:#ffffff;fill-opacity:1;stroke:none;stroke-width:0.264583;stroke-opacity:1"
       id="rect126405-0"
       width="64.602325"
       height="26.402178"
       x="297.68103"
       y="273.98141"
       ry="0"
       rx="0"
       inkscape:label="headlight2"
       inkscape:path-effect="#path-effect127375"
       d="m 301.64978,273.98141 h 56.66483 a 3.96875,3.96875 45 0 1 3.96875,3.96875 v 18.46468 a 3.96875,3.96875 135 0 1 -3.96875,3.96875 h -56.66483 a 3.96875,3.96875 45 0 1 -3.96875,-3.96875 v -18.46468 a 3.96875,3.96875 135 0 1 3.96875,-3.96875 z" /><path
       style="fill:#ffffff;fill-opacity:1;stroke:none;stroke-width:0.265;stroke-dasharray:none;stroke-opacity:1"
       d="m 135.29811,92.594217 h 49.51335 a 7.9375,7.9375 45 0 1 7.9375,7.937503 v 115.50057 a 7.9375,7.9375 135 0 1 -7.9375,7.9375 h -65.85305 a 7.2031683,7.2031683 47.776704 0 1 -7.16936,-7.90024 l 4.83852,-49.76369 a 297.49692,297.49692 97.081752 0 1 1.95646,-15.74828 l 7.58826,-50.11532 a 9.2298397,9.2298397 139.30505 0 1 9.12582,-7.848043 z"
       id="path127295"
       sodipodi:nodetypes="cccccc"
       inkscape:path-effect="#path-effect127297"
       inkscape:original-d="m 127.36061,92.594217 h 65.38835 V 223.96979 h -81.72805 l 6.3748,-65.56417 z"
       inkscape:label="windowL" /><path
       style="fill:#ffffff;fill-opacity:1;stroke:none;stroke-width:0.265981;stroke-dasharray:none;stroke-opacity:1"
       d="m 338.65902,92.594217 h -49.99861 a 7.9375,7.9375 135 0 0 -7.9375,7.937503 v 115.50057 a 7.9375,7.9375 45 0 0 7.9375,7.9375 h 66.45957 a 7.1979982,7.1979982 132.20282 0 0 7.16371,-7.89969 l -4.87452,-49.76479 a 295.37085,295.37085 82.866307 0 0 -1.97073,-15.74642 l -7.64498,-50.11794 a 9.2401003,9.2401003 40.663484 0 0 -9.13444,-7.846733 z"
       id="path127309"
       sodipodi:nodetypes="cccccc"
       inkscape:path-effect="#path-effect127313"
       inkscape:original-d="M 346.59652,92.594217 H 280.72291 V 223.96979 h 82.33457 l -6.4221,-65.56417 z"
       inkscape:label="windowR" /></g></svg>
